<svg xmlns="http://www.w3.org/2000/svg" viewBox="0 0 1414.79 442.17"><defs><style>.cls-1{fill:#fff;}.cls-2{fill:#00be6e;}</style></defs><g id="Camada_2" data-name="Camada 2"><g id="Camada_1-2" data-name="Camada 1"><path class="cls-1" d="M484.58,173.64,452.11,54.9h14.61l24.82,96.71h1.16L518,54.9h16.23l25.28,96.71h1.16L585.46,54.9h14.61L567.61,173.64H552.76L526.56,79h-.93l-26.21,94.62Z"/><path class="cls-1" d="M645.06,175.49q-12.87,0-22.17-5.71a37.55,37.55,0,0,1-14.32-16q-5-10.29-5-24t5-24.15a39.24,39.24,0,0,1,14-16.35,37.69,37.69,0,0,1,21.07-5.89,42.36,42.36,0,0,1,13.74,2.32,34.22,34.22,0,0,1,12.35,7.51A36.31,36.31,0,0,1,678.63,107q3.32,8.54,3.31,21v5.8H613.29V121.92H668a29.44,29.44,0,0,0-3-13.45,22.94,22.94,0,0,0-8.47-9.33,23.84,23.84,0,0,0-12.9-3.42,24.49,24.49,0,0,0-14.11,4,26.76,26.76,0,0,0-9.14,10.46,30.74,30.74,0,0,0-3.19,13.8v7.88q0,10.1,3.51,17.08a24.74,24.74,0,0,0,9.77,10.61,28.51,28.51,0,0,0,14.55,3.62,29.46,29.46,0,0,0,9.77-1.53A20.46,20.46,0,0,0,662.4,157a20.91,20.91,0,0,0,4.93-7.74L680.55,153a29,29,0,0,1-7,11.8,33.58,33.58,0,0,1-12.17,7.88A44.7,44.7,0,0,1,645.06,175.49Z"/><path class="cls-1" d="M704.67,173.64V54.9h13.68V98.73h1.16c1-1.54,2.4-3.53,4.2-5.94a24.64,24.64,0,0,1,7.77-6.5q5.07-2.87,13.77-2.87a35.35,35.35,0,0,1,19.83,5.63A37.42,37.42,0,0,1,778.47,105q4.81,10.32,4.81,24.35t-4.81,24.5a37.76,37.76,0,0,1-13.33,16,34.74,34.74,0,0,1-19.66,5.65q-8.58,0-13.74-2.87a24.76,24.76,0,0,1-7.94-6.55Q721,162.4,719.51,160h-1.63v13.68Zm13.45-44.53a49.29,49.29,0,0,0,3,17.77,26.65,26.65,0,0,0,8.64,12,22.34,22.34,0,0,0,13.92,4.32q8.58,0,14.35-4.55a27.73,27.73,0,0,0,8.69-12.29,48.47,48.47,0,0,0,2.93-17.25,47.4,47.4,0,0,0-2.87-17,26.63,26.63,0,0,0-8.64-12q-5.76-4.44-14.46-4.43a22.92,22.92,0,0,0-14,4.2A25.58,25.58,0,0,0,721,111.63,48.22,48.22,0,0,0,718.12,129.11Z"/><path class="cls-1" d="M469.53,423V211.14H549q24.42,0,41,8.49a58.4,58.4,0,0,1,25.13,23.73q8.53,15.27,8.53,35.53T615,314.22q-8.64,14.94-25.4,23.06t-41.16,8.12H491.87V313.54h51.4q14.28,0,23.38-4a27.71,27.71,0,0,0,13.5-11.69q4.4-7.69,4.39-19T580.1,259.6a28.69,28.69,0,0,0-13.55-12.2q-9.1-4.2-23.48-4.19H507.9V423ZM579,327l52.44,96H588.58l-51.51-96Z"/><path class="cls-1" d="M714.35,426.08q-23.9,0-41.22-10a66.74,66.74,0,0,1-26.63-28.34q-9.32-18.36-9.31-43.29,0-24.51,9.36-43.08a70.45,70.45,0,0,1,26.22-29Q689.63,262,712.39,262a81.4,81.4,0,0,1,27.77,4.71,63.92,63.92,0,0,1,23.17,14.53q10.08,9.83,15.87,25T785,342.3v11.48H654.77V328.54H749.1a40.66,40.66,0,0,0-4.65-19.19,34.1,34.1,0,0,0-12.67-13.29,36.08,36.08,0,0,0-18.88-4.86,36.73,36.73,0,0,0-20.17,5.54,38.53,38.53,0,0,0-13.5,14.48,41.66,41.66,0,0,0-4.91,19.6v22q0,13.86,5.07,23.74a35.77,35.77,0,0,0,14.17,15.1q9.11,5.22,21.31,5.22a44.47,44.47,0,0,0,14.79-2.33,32.24,32.24,0,0,0,11.48-6.87,28.89,28.89,0,0,0,7.34-11.28l35,3.93a54.32,54.32,0,0,1-12.56,24.15,61.3,61.3,0,0,1-23.64,15.93Q732.87,426.08,714.35,426.08Z"/><path class="cls-1" d="M843,329.89V423H805.58V264.1h35.78v27h1.87a45.28,45.28,0,0,1,17.53-21.21q12-7.84,29.84-7.86,16.44,0,28.7,7a47.77,47.77,0,0,1,19,20.37q6.78,13.35,6.67,32.38V423H907.56V327.61q0-15.93-8.22-24.93t-22.71-9a34.8,34.8,0,0,0-17.42,4.3,30,30,0,0,0-11.9,12.36Q843,318.4,843,329.89Z"/><path class="cls-1" d="M1017.82,426.18a65.36,65.36,0,0,1-27.15-5.43,43.6,43.6,0,0,1-19-16.08q-7-10.65-7-26.27,0-13.45,5-22.24a38.41,38.41,0,0,1,13.55-14.07,69.34,69.34,0,0,1,19.39-8,162.08,162.08,0,0,1,22.4-4q14-1.44,22.65-2.63t12.67-3.73c2.65-1.69,4-4.32,4-7.91v-.62q0-11.68-6.93-18.1t-20-6.42q-13.75,0-21.77,6a29.66,29.66,0,0,0-10.81,14.17l-35-5a56.12,56.12,0,0,1,13.65-24.26A60.15,60.15,0,0,1,1006.75,267a89.77,89.77,0,0,1,30.41-4.92,99.28,99.28,0,0,1,22.86,2.69,65.08,65.08,0,0,1,20.79,8.85,45.49,45.49,0,0,1,15.15,16.7q5.74,10.55,5.74,26.38V423h-36V401.15h-1.24a45.26,45.26,0,0,1-25,21.57A61.73,61.73,0,0,1,1017.82,426.18Zm9.72-27.51q11.28,0,19.55-4.5a32.84,32.84,0,0,0,12.77-11.95,30.79,30.79,0,0,0,4.5-16.24V347.26a17.49,17.49,0,0,1-5.94,2.69,88,88,0,0,1-9.36,2.17c-3.45.62-6.87,1.18-10.24,1.66s-6.31.9-8.8,1.24a65.62,65.62,0,0,0-15,3.72,25.14,25.14,0,0,0-10.45,7.19q-3.83,4.6-3.83,11.85,0,10.34,7.55,15.61T1027.54,398.67Z"/><path class="cls-1" d="M1264.51,264.1,1207.93,423h-41.37L1110,264.1h39.92l36.51,118h1.66l36.62-118Z"/><path class="cls-1" d="M1344.15,426.08q-23.89,0-41.22-10a66.74,66.74,0,0,1-26.63-28.34Q1267,369.4,1267,344.47q0-24.51,9.36-43.08a70.45,70.45,0,0,1,26.22-29q16.86-10.4,39.62-10.4a81.4,81.4,0,0,1,27.77,4.71,63.92,63.92,0,0,1,23.17,14.53q10.08,9.83,15.87,25t5.79,36.05v11.48H1284.57V328.54h94.33a40.66,40.66,0,0,0-4.65-19.19,34.1,34.1,0,0,0-12.67-13.29,36.08,36.08,0,0,0-18.88-4.86,36.73,36.73,0,0,0-20.17,5.54,38.53,38.53,0,0,0-13.5,14.48,41.66,41.66,0,0,0-4.91,19.6v22q0,13.86,5.07,23.74a35.77,35.77,0,0,0,14.17,15.1q9.11,5.22,21.31,5.22a44.47,44.47,0,0,0,14.79-2.33,32.24,32.24,0,0,0,11.48-6.87,28.89,28.89,0,0,0,7.34-11.28l35,3.93a54.32,54.32,0,0,1-12.56,24.15A61.3,61.3,0,0,1,1377,420.44Q1362.67,426.08,1344.15,426.08Z"/><path class="cls-1" d="M2,316.43A271.34,271.34,0,0,1,222.43,442.17H349.14a385.25,385.25,0,0,0-94-135.77A383,383,0,0,0,0,203.43v113Z"/><path class="cls-2" d="M377.67,181.38A182.1,182.1,0,0,0,195.4,0H0V113.07H195.28a69.27,69.27,0,0,1,65.91,90.36H376.46a184.72,184.72,0,0,0,1.21-21.16v-.89Z"/></g></g></svg>