<svg xmlns="http://www.w3.org/2000/svg" viewBox="0 0 657.5 381.49"><defs><style>.cls-1{fill:#ebebeb;}.cls-2{fill:#e0e0e0;}.cls-3{fill:#f5f5f5;}.cls-4{fill:#00723e;}.cls-5{fill:#263238;}.cls-6{fill:#fafafa;}.cls-7{fill:#00bf6f;}.cls-8{opacity:0.4;}.cls-9{fill:#fff;}.cls-10{fill:#455a64;}.cls-11{opacity:0.2;}.cls-12{fill:#b78876;}.cls-13{fill:#aa6550;}.cls-14{opacity:0.3;}</style></defs><g id="Camada_2" data-name="Camada 2"><g id="Background_Complete" data-name="Background Complete"><path class="cls-1" d="M625.58,116.68a13.52,13.52,0,0,1,3.47,10,23.87,23.87,0,0,1-3.24,10.34c-3.39,6.18-9.76,11.21-15.85,14.76-3.5-7-1.34-15.83,0-20.24,2.18-7,10.34-18.23,15.59-14.9"/><path class="cls-1" d="M611.9,165.12a11.57,11.57,0,0,1,7.65-8.76,15.38,15.38,0,0,1,11.84,1c1.68.85,3.35,2.12,3.75,4a5,5,0,0,1-1.83,4.67,10,10,0,0,1-4.83,2c-6,1-11.89.92-16.58-2.88"/><path class="cls-2" d="M596.74,182.11a7.9,7.9,0,0,1,.74-1.25l2.14-3.33c1.84-2.76,4.38-6.75,8.44-10a24.84,24.84,0,0,1,11.85-5.37,16.79,16.79,0,0,1,4-.11c.46,0,.82.12,1.07.15s.36.08.36.1a26,26,0,0,0-5.36.21A25.66,25.66,0,0,0,608.38,168c-4,3.15-6.54,7.06-8.46,9.77-.95,1.37-1.72,2.49-2.27,3.24A8.28,8.28,0,0,1,596.74,182.11Z"/><path class="cls-2" d="M620.12,125.81a2.7,2.7,0,0,1-.17.61l-.59,1.71c-.52,1.48-1.3,3.62-2.28,6.25-2,5.26-4.78,12.49-8.07,20.4s-6.44,15-8.79,20.11c-1.17,2.55-2.13,4.61-2.82,6l-.8,1.62a2.63,2.63,0,0,1-.31.55,2.78,2.78,0,0,1,.22-.59l.71-1.66,2.67-6.09c2.26-5.14,5.35-12.25,8.65-20.16s6.15-15.11,8.2-20.33c1-2.57,1.84-4.67,2.43-6.19l.68-1.68A2.5,2.5,0,0,1,620.12,125.81Z"/><path class="cls-1" d="M600.84,165.18a27.09,27.09,0,0,0-6.14-24c-1.46-1.62-3.61-3.17-5.66-2.43s-2.73,3.32-2.77,5.51a23.15,23.15,0,0,0,14.22,21.38"/><path class="cls-2" d="M593.06,147.71a7.47,7.47,0,0,1,1,1,12.56,12.56,0,0,1,1,1.24,18.72,18.72,0,0,1,1.24,1.73,25.31,25.31,0,0,1,1.32,2.21,29.2,29.2,0,0,1,1.27,2.68,30.49,30.49,0,0,1,1.81,6.53,29,29,0,0,1,.18,6.79,24.53,24.53,0,0,1-.45,2.92,22.11,22.11,0,0,1-.64,2.5,20.35,20.35,0,0,1-.72,2,11.93,11.93,0,0,1-.65,1.47,7.85,7.85,0,0,1-.66,1.2c-.1-.05.82-1.77,1.68-4.77a22.86,22.86,0,0,0,.57-2.48,26.45,26.45,0,0,0,.41-2.89,28.77,28.77,0,0,0-2-13.1,26.24,26.24,0,0,0-1.21-2.65c-.39-.83-.85-1.55-1.24-2.22C594.31,149.21,593,147.78,593.06,147.71Z"/><path class="cls-1" d="M4.17,54.35S-5,57.31,3.9,77s15.28,29.59,15.28,29.59,1.53,4.55-2.26,5.07S4.89,110.5,3,115c-2,4.7,1.29,9.37,8.14,13.65S32.66,142.9,34,143.81s2.54,3,0,3.8-21.27,1.83-20.23,10.69S35.85,176,38.13,177s2.79,2,2.54,3.29-6.58,1-11.89,1.55-11.39,2.06-10.36,7.12,13.21,16.17,43.87,20.64l14.34,1.14L85,198.94c16.41-26.28,15.82-42.76,12.62-46.81s-8.3-.42-12.13,3.3-7.75,8.7-8.88,8.07-1.57-1.67-.86-4.06,7.6-24.14,1.51-30.66-19,7.08-21.24,8.51-3-.9-2.89-2.46,2.07-19.21,3.23-27.2-.3-13.51-5.15-15c-4.68-1.49-8.69,5.9-11.54,8.46s-5.34-1.55-5.34-1.55S31,88.27,21.67,68.71,4,54.42,4,54.42"/><path class="cls-2" d="M77.22,214.12C70.46,199.73,58.87,174,48.81,151.86S29.63,109.81,23,95.38L15,78.3l-2.15-4.64-.55-1.21L12.13,72s.08.13.22.4l.59,1.19,2.23,4.61c1.93,4,4.69,9.82,8.06,17,6.76,14.39,15.93,34.35,26,56.43S70.82,199.56,77.5,214"/><path class="cls-2" d="M14.41,117.89a4.64,4.64,0,0,1,1,.33c.63.23,1.52.6,2.62,1.06,2.21.92,5.22,2.28,8.51,3.84l8.42,4,2.56,1.2a4.61,4.61,0,0,1,.92.48,4.9,4.9,0,0,1-1-.32c-.63-.24-1.52-.6-2.62-1.08-2.19-1-5.19-2.34-8.48-3.9l-8.44-4-2.57-1.19A4.91,4.91,0,0,1,14.41,117.89Z"/><path class="cls-2" d="M39.46,128c-.12,0,2.41-6.38,5.64-14.14s5.95-14,6.06-14-2.41,6.37-5.64,14.13S39.57,128,39.46,128Z"/><path class="cls-2" d="M53.37,162.56a4.77,4.77,0,0,1,.63-.86l1.81-2.25c1.53-1.9,3.62-4.53,5.83-7.52s4.12-5.76,5.49-7.78l1.62-2.38a4.31,4.31,0,0,1,.64-.85,5.64,5.64,0,0,1-.49.94c-.34.59-.85,1.44-1.51,2.47-1.3,2.06-3.17,4.87-5.39,7.87s-4.36,5.6-6,7.45c-.8.93-1.45,1.67-1.92,2.16A4.83,4.83,0,0,1,53.37,162.56Z"/><path class="cls-2" d="M28.71,158.44a4.11,4.11,0,0,1,1,.06l2.64.34c2.24.3,5.32.75,8.71,1.27s6.48,1,8.7,1.41l2.62.47a4.76,4.76,0,0,1,1,.24,4,4,0,0,1-1-.06l-2.65-.34c-2.23-.3-5.31-.75-8.71-1.27s-6.47-1-8.69-1.41l-2.63-.47A4.76,4.76,0,0,1,28.71,158.44Z"/><path class="cls-2" d="M37.12,190.55a7.7,7.7,0,0,1,1.25.09l3.4.42c2.86.37,6.82.92,11.18,1.55s8.3,1.22,11.16,1.67l3.37.56a6.73,6.73,0,0,1,1.23.26,5.58,5.58,0,0,1-1.25-.09l-3.4-.42c-2.86-.37-6.81-.91-11.18-1.54s-8.3-1.22-11.16-1.68l-3.37-.55A7.5,7.5,0,0,1,37.12,190.55Z"/><path class="cls-2" d="M68,194.78a7.55,7.55,0,0,1,.76-1.11c.57-.75,1.3-1.74,2.19-2.93,1.85-2.48,4.39-5.91,7.09-9.78s5.06-7.43,6.75-10l2-3.07a7.45,7.45,0,0,1,.78-1.1,8.33,8.33,0,0,1-.63,1.19c-.43.76-1.07,1.83-1.89,3.15-1.62,2.64-3.93,6.23-6.64,10.11s-5.29,7.28-7.21,9.71c-1,1.22-1.74,2.19-2.3,2.85A7.66,7.66,0,0,1,68,194.78Z"/><path class="cls-3" d="M301.58,172.65c-25.62-12.89-35.26-42.3-38.26-69.56-.5-4.55-1.69-9.25-.11-13.54s6.21-7.72,10.54-6.4c3.6,1.1,5.63,4.8,8,7.76a26.86,26.86,0,0,0,12.09,8.61c3.1,1.08,6.8,1.48,9.42-.51,3.59-2.71,3.27-8.18,2.59-12.68Q303.93,73.76,302,61.18c-.68-4.5-1.36-9.1-.58-13.57s3.31-8.9,7.42-10.72,9.76-.11,11.3,4.16c.64,1.78.55,3.74.94,5.59s1.57,3.8,3.42,4.06,3.49-1.27,4.64-2.78c4-5.22,6.3-11.53,8.41-17.78s4.1-12.63,7.6-18.2S354,1.6,360.35.3,374.19,2,376.73,8.08s-.22,13.09-3.5,18.82a101.78,101.78,0,0,1-18.05,23c-1.27,1.21-2.65,2.52-3,4.27-.54,3.15,2.74,5.72,5.84,6.27,3.52.64,7.11-.24,10.68-.33s7.6.9,9.41,4c2.51,4.33-.64,9.72-4,13.42a86.93,86.93,0,0,1-23.36,18.4c-3.14,1.69-6.47,3.26-8.81,6s-3.36,7-1.29,9.93,6.37,3.36,9.74,2.22,6.21-3.48,9.34-5.21c5.85-3.23,13.91-4,18.64.82,3.12,3.14,4.05,8,3.34,12.38s-2.86,8.38-5.22,12.12c-8.23,13.07-19.58,24.27-33.21,31.33s-26.75,10.32-41.77,7.16"/><path class="cls-2" d="M306.13,154.64a406.6,406.6,0,0,1,9.73-45.76L319,97c1.05-3.89,2.09-7.75,3.34-11.46a203.74,203.74,0,0,1,8.41-20.91c3-6.53,6.08-12.61,9-18.27s5.77-10.89,8.56-15.54a161.73,161.73,0,0,1,14.77-21c1.93-2.32,3.49-4.08,4.56-5.26l1.23-1.33a3.71,3.71,0,0,1,.44-.43,4.14,4.14,0,0,1-.38.49L367.8,4.73c-1,1.21-2.55,3-4.44,5.35a172,172,0,0,0-14.52,21.06c-2.74,4.65-5.54,9.88-8.45,15.55S334.45,58.45,331.48,65a204.4,204.4,0,0,0-8.33,20.85c-1.24,3.69-2.27,7.52-3.32,11.42l-3.16,11.86a416.69,416.69,0,0,0-9.78,45.65"/><path class="cls-2" d="M322.6,85.49a10.36,10.36,0,0,1-.71-1.86c-.42-1.21-1-3-1.61-5.18-1.28-4.39-2.85-10.52-4.55-17.28S312.38,48.32,311,44c-.67-2.18-1.23-3.94-1.63-5.15a8.76,8.76,0,0,1-.53-1.92,9,9,0,0,1,.83,1.81c.5,1.18,1.15,2.91,1.89,5.08,1.5,4.33,3.24,10.42,5,17.19s3.17,12.71,4.31,17.32c.54,2.08,1,3.84,1.35,5.25A8.61,8.61,0,0,1,322.6,85.49Z"/><path class="cls-2" d="M378.94,66.3a13.66,13.66,0,0,1-2.27.61c-1.47.34-3.59.83-6.2,1.52-5.22,1.34-12.37,3.45-20.15,6.11s-14.72,5.4-19.68,7.52c-2.49,1-4.48,1.93-5.86,2.54a13,13,0,0,1-2.18.89,12.11,12.11,0,0,1,2-1.18c1.34-.71,3.3-1.69,5.77-2.8,4.91-2.26,11.84-5.09,19.64-7.77a209.36,209.36,0,0,1,20.28-5.89c2.63-.62,4.78-1,6.27-1.27A11.79,11.79,0,0,1,378.94,66.3Z"/><path class="cls-2" d="M306.68,153.47a3.36,3.36,0,0,1-.5-.65l-1.29-1.95c-1.11-1.7-2.66-4.2-4.54-7.32-3.75-6.23-8.66-15-14-24.74S276.28,100.26,272.67,94l-4.31-7.45-1.16-2a3.41,3.41,0,0,1-.36-.74s.2.21.5.65l1.3,2c1.11,1.7,2.66,4.2,4.53,7.31,3.76,6.23,8.67,15,14,24.75s10.11,18.55,13.73,24.85l4.31,7.45c.46.81.84,1.48,1.16,2A2.84,2.84,0,0,1,306.68,153.47Z"/><path class="cls-2" d="M380,117.55a3.36,3.36,0,0,1-.72.43l-2.13,1.07-7.85,3.86c-6.63,3.26-15.74,7.87-25.79,13s-19.22,9.64-25.92,12.76c-3.35,1.57-6.07,2.8-8,3.62l-2.19.93a3,3,0,0,1-.79.27,3.36,3.36,0,0,1,.72-.43l2.13-1.07,7.85-3.86c6.63-3.26,15.74-7.87,25.79-13s19.21-9.64,25.91-12.76c3.35-1.57,6.08-2.8,8-3.62l2.19-.93A2.9,2.9,0,0,1,380,117.55Z"/></g><g id="Car"><rect class="cls-4" x="61.36" y="247.12" width="554.82" height="81.41"/><circle class="cls-5" cx="135.91" cy="327.99" r="53.5" transform="translate(-21.71 9.86) rotate(-3.85)"/><path class="cls-5" d="M82.43,327.08c0,.05,0,.09,0,.14a53.5,53.5,0,0,0,107,1.54c0-.05,0-.09,0-.14Z"/><path class="cls-6" d="M98.36,327.45a37.56,37.56,0,1,0,38.1-37A37.56,37.56,0,0,0,98.36,327.45Z"/><path class="cls-2" d="M136.46,290.43a37.56,37.56,0,0,0-38.1,37l75.11,1.08A37.56,37.56,0,0,0,136.46,290.43Z"/><path class="cls-5" d="M113,327.66a22.88,22.88,0,1,0,23.2-22.55A22.89,22.89,0,0,0,113,327.66Z"/><circle class="cls-5" cx="545.02" cy="327.99" r="53.5" transform="translate(-18.06 32.07) rotate(-3.32)"/><path class="cls-5" d="M491.53,327.08c0,.05,0,.09,0,.14a53.5,53.5,0,0,0,107,1.54c0-.05,0-.09,0-.14Z"/><path class="cls-6" d="M507.46,327.45a37.56,37.56,0,1,0,38.1-37A37.56,37.56,0,0,0,507.46,327.45Z"/><path class="cls-2" d="M545.56,290.43a37.57,37.57,0,0,0-38.1,37l75.11,1.08A37.56,37.56,0,0,0,545.56,290.43Z"/><path class="cls-5" d="M522.14,327.66a22.88,22.88,0,1,0,23.21-22.55A22.89,22.89,0,0,0,522.14,327.66Z"/><path class="cls-7" d="M206,201.32s-78.78,5.81-108,12.36c-20.57,4.62-60.26,12.58-59.78,37.55l3.15,17.89S26.71,275.85,26.71,293s-3.6,43.77,30.76,44.83c5.66.18,16.42,0,16.42,0s-6.6-73.17,60.63-75.31c68.39-2.18,63.84,74.64,63.84,74.64H483.79s-11.72-74.85,61.9-75,62.42,75.44,62.42,75.44S635.2,340,647.8,317.23s9.32-39,9.32-39l-.42-14.39a9.31,9.31,0,0,0-9-9h0s4.92-36.23-2.63-42.5-48.92-44.09-48.92-44.09l2-1.24a4.64,4.64,0,0,0-1-8.32c-15.71-5.4-46.76-16.08-54.07-18.64a13.56,13.56,0,0,0-3.39-.71c-4.36-.34-16.69-1.12-39.34-1.36-27.59-.29-137.14,0-137.14,0s-37.69,3.1-58.7,12.35C282.49,160.06,206,201.32,206,201.32Z"/><g class="cls-8"><path d="M46.68,291c-2.86-.58-7.24-.64-9.42,1.3-1.61,1.44-2,3.76-2.29,5.91a25.16,25.16,0,0,0,.2,8.87,10.81,10.81,0,0,0,5,7.07c2.61,1.42,6.19,1.19,8.23-1,1.85-2,2.07-5,2-7.68-.07-3.86.24-7.13-.47-10.92a5.36,5.36,0,0,0-1-2.2A3,3,0,0,0,46.68,291"/></g><path class="cls-6" d="M41.43,269.12c8.36,0,16.47-.46,24.82-1a4.05,4.05,0,0,0,2.54-.77,4.08,4.08,0,0,0,.87-3c0-4.48-.18-9.57-3.58-12.49-2.08-1.79-4.93-2.34-7.65-2.6a49.56,49.56,0,0,0-20.15,2Z"/><path class="cls-9" d="M215.09,334.87s0-.24-.07-.71-.08-1.19-.14-2.1c-.1-1.86-.25-4.58-.44-8.07s-.43-7.79-.93-12.75a99.76,99.76,0,0,0-2.95-16.63,75.44,75.44,0,0,0-8.05-18.76A59,59,0,0,0,187,258.49c-13.5-9.59-31.73-15-50.8-15.25s-37.28,5.81-50.43,15.88a74.26,74.26,0,0,0-16.38,16.7,79.45,79.45,0,0,0-9.58,18,73.57,73.57,0,0,0-4,16.37A68.71,68.71,0,0,0,55.22,323a63.25,63.25,0,0,0,1,8c.16.9.29,1.59.38,2.07s.11.71.11.71-.07-.24-.17-.7-.24-1.17-.42-2.06A59.77,59.77,0,0,1,55,323a68.36,68.36,0,0,1,.4-12.79,73.57,73.57,0,0,1,4-16.46A79.76,79.76,0,0,1,69,275.57a74.25,74.25,0,0,1,16.44-16.84c13.22-10.15,31.5-16.25,50.73-16s37.48,5.69,51.07,15.39a59.14,59.14,0,0,1,15.65,17.52,75.88,75.88,0,0,1,8,18.88,100.32,100.32,0,0,1,2.88,16.7c.48,5,.68,9.26.85,12.77s.26,6.21.34,8.07c0,.92.06,1.61.08,2.1S215.09,334.87,215.09,334.87Z"/><path class="cls-5" d="M218.12,336.12s0-.21,0-.6l-.06-1.78c-.05-1.57-.12-3.89-.22-6.91-.17-6.06-.42-14.94-.74-26.22s-.69-25-1.12-40.7q-.15-5.9-.32-12.16a41.22,41.22,0,0,1,.27-6.35c.15-1.06.3-2.14.46-3.22L217,235a67.13,67.13,0,0,1,11.77-25l0,0,0,0,49.43-31.14,13.35-8.41a104.71,104.71,0,0,1,14.12-7.88,143.94,143.94,0,0,1,15.35-6.13c2.62-.92,5.32-1.68,8-2.48s5.44-1.46,8.21-2a186.4,186.4,0,0,1,31.86-4A298.78,298.78,0,0,1,400,148h.29l-.06.29c-4.73,21.17-9.2,41.12-13.29,59.42v0l0,0a64.9,64.9,0,0,0-6,12.76,34.7,34.7,0,0,0-2,13.21c.34,4.39.46,8.68.57,12.85s.16,8.22.24,12.14c.23,15.7.29,29.4.33,40.68s0,20.14,0,26.2c0,3,0,5.34,0,6.91,0,.78,0,1.37,0,1.77s0,.6,0,.6,0-.2,0-.6,0-1,0-1.77c0-1.57,0-3.89,0-6.91,0-6.06-.09-14.92-.15-26.2s-.18-25-.44-40.67q-.13-5.88-.26-12.14c-.12-4.17-.25-8.45-.6-12.83a35.44,35.44,0,0,1,2-13.38,64.74,64.74,0,0,1,6-12.86l0,.07c4.08-18.3,8.52-38.26,13.23-59.43l.23.31a300.51,300.51,0,0,0-30.78-.09,187.2,187.2,0,0,0-31.77,4c-2.76.56-5.47,1.33-8.18,2s-5.36,1.55-8,2.47A144.91,144.91,0,0,0,306,163a104.94,104.94,0,0,0-14.06,7.85l-13.35,8.4-49.47,31.1,0,0a63.76,63.76,0,0,0-7.28,12.06,65.23,65.23,0,0,0-4.44,12.72c-2.25,8.57-1.11,17-1.09,24.86.38,15.7.72,29.4,1,40.69s.48,20.16.62,26.23c.07,3,.12,5.34.15,6.91,0,.78,0,1.37,0,1.78Z"/><path class="cls-5" d="M399.66,149.65l.47,0,1.37,0,5.31-.13,19.69-.39,66.39-1.13H493l.08.09,9.3,11.39L529,192l3,3.71a20.43,20.43,0,0,1,4.47,12.69,20.73,20.73,0,0,1-1.61,8.18l-3,7-9.18,21.24c-1.09,2.48-1.93,4.42-2.52,5.76l-.67,1.49c-.15.34-.24.5-.24.5s.06-.18.2-.52.35-.86.61-1.51c.57-1.35,1.39-3.3,2.43-5.8l9-21.3c1.72-4.53,4.75-9.28,4.54-15.08a20.25,20.25,0,0,0-4.4-12.4l-3-3.7c-8.18-10-17.16-21-26.59-32.54l-9.3-11.39.2.09-66.38,1-19.7.24-5.31,0h-1.84Z"/><path class="cls-5" d="M366.15,237.92s.28,0,.79-.12a5.38,5.38,0,0,0,2.11-.83,5.48,5.48,0,0,0,2.14-2.79,6.19,6.19,0,0,0,.27-2.2,5.51,5.51,0,0,0-.62-2.38,5.32,5.32,0,0,0-4.61-2.8l-6.74,0-15.45,0a5.23,5.23,0,0,0-5.19,4.64,5.8,5.8,0,0,0,.64,3.53,5.25,5.25,0,0,0,2.56,2.28,8.06,8.06,0,0,0,3.32.4h3.27l5.88,0,8.51.08,2.31.05a5.13,5.13,0,0,1,.81,0,3.93,3.93,0,0,1-.81.05L363,238l-8.51.08-5.88,0h-3.27c-.57,0-1.12,0-1.73,0a5.9,5.9,0,0,1-1.78-.41,5.8,5.8,0,0,1-2.81-2.47,6.4,6.4,0,0,1-.71-3.83,5.75,5.75,0,0,1,5.7-5.11l15.45,0,6.75,0a5.66,5.66,0,0,1,5.55,5.61,6.17,6.17,0,0,1-.33,2.3,5.54,5.54,0,0,1-2.3,2.86,5.45,5.45,0,0,1-2.2.77A3.12,3.12,0,0,1,366.15,237.92Z"/><path class="cls-5" d="M514.08,237.92s.28,0,.79-.12A5.38,5.38,0,0,0,517,237a5.48,5.48,0,0,0,2.14-2.79,6.19,6.19,0,0,0,.27-2.2,5.51,5.51,0,0,0-.62-2.38,5.32,5.32,0,0,0-4.61-2.8l-6.74,0-15.45,0a5.23,5.23,0,0,0-5.19,4.64,5.8,5.8,0,0,0,.64,3.53,5.25,5.25,0,0,0,2.56,2.28,8.06,8.06,0,0,0,3.32.4h3.27l5.88,0,8.51.08,2.31.05a5.13,5.13,0,0,1,.81,0,3.93,3.93,0,0,1-.81.05L511,238l-8.51.08-5.88,0H493.3c-.57,0-1.12,0-1.73,0a5.9,5.9,0,0,1-1.78-.41,5.8,5.8,0,0,1-2.81-2.47,6.4,6.4,0,0,1-.71-3.83,5.75,5.75,0,0,1,5.7-5.11l15.45,0,6.75,0a5.66,5.66,0,0,1,5.55,5.61,6.17,6.17,0,0,1-.33,2.3,5.54,5.54,0,0,1-2.3,2.86,5.45,5.45,0,0,1-2.2.77A3.12,3.12,0,0,1,514.08,237.92Z"/><path class="cls-6" d="M643.81,213.78h-29.6a10.93,10.93,0,0,0-9.67,5.84h0a10.94,10.94,0,0,0-.33,9.49l11.61,26.36,29.64-.29S651.76,221.76,643.81,213.78Z"/><path class="cls-5" d="M232.71,210.05l152.73-2.81,99.4-1.83,32.78-18.92a5.09,5.09,0,0,0,1.51-7.49l-20.4-26.81a11.35,11.35,0,0,0-9-4.47l-111.17-.91s-41.87-2.43-74.85,16C269,182.29,232.71,210.05,232.71,210.05Z"/><path class="cls-10" d="M302.71,149.58s7.65,3.49,2.67,6.73-82.36,52-82.36,52l-17.79-8.05C236.74,182.72,268.57,165.67,302.71,149.58Z"/><path class="cls-5" d="M225.52,209.55l-.48.12-1.41.3-5.42,1.13c-4.72.94-11.56,2.25-20.05,3.71-17,2.92-40.52,6.32-66.69,8.59-6.55.57-12.94,1-19.12,1.44s-12.14.78-17.8,1.3c-11.33,1-21.47,2.64-29.71,5.09A83.94,83.94,0,0,0,46.11,239c-2.13,1.12-3.64,2.22-4.72,2.88l-1.22.78-.42.25.39-.3,1.19-.81a55.28,55.28,0,0,1,4.68-3,82.15,82.15,0,0,1,18.73-8c8.25-2.5,18.43-4.19,29.76-5.21,5.67-.53,11.64-.92,17.81-1.33s12.57-.88,19.11-1.45c26.16-2.26,49.71-5.61,66.68-8.43,8.49-1.41,15.34-2.67,20.07-3.55l5.44-1,1.42-.25A4.38,4.38,0,0,1,225.52,209.55Z"/><path class="cls-5" d="M655.63,277.94c0,.14-10.18.26-22.73.26s-22.74-.12-22.74-.26,10.18-.26,22.74-.26S655.63,277.8,655.63,277.94Z"/><path class="cls-5" d="M469.4,303.92c0,.14-57.46.26-128.33.26s-128.34-.12-128.34-.26,57.45-.26,128.34-.26S469.4,303.77,469.4,303.92Z"/><path class="cls-5" d="M67.06,278.8c0,.14-8.12.26-18.14.26s-18.15-.12-18.15-.26,8.12-.26,18.15-.26S67.06,278.66,67.06,278.8Z"/><path class="cls-10" d="M595.38,167.21s-6.81,7.64-4.13,13.24,30.38,25.21,30.38,25.21l20.11,3.78Z"/><polygon class="cls-10" points="404.19 153.55 399.66 202.38 480.58 200.07 513.2 181.12 492.08 153.55 404.19 153.55"/><path class="cls-10" d="M251.87,204.88s48.82-35.26,68.08-42.26c18.59-6.77,28.28-8.46,45.74-9,16.69-.47,26.86,0,26.86,0l-12.9,49.65Z"/><path class="cls-7" d="M244.73,205h0a8.55,8.55,0,0,1,4.36-7.45l11.22-6.3a21.34,21.34,0,0,1,10.47-2.74h0a21.34,21.34,0,0,1,6.66,1.06,12.15,12.15,0,0,1,8.17,11.16h0a12.35,12.35,0,0,1-12.35,12.83h-20A8.55,8.55,0,0,1,244.73,205Z"/><path class="cls-5" d="M244.73,205s0,.38.13,1.09a8.48,8.48,0,0,0,4.42,6.31,8.45,8.45,0,0,0,2.89.91c1.06.12,2.23.05,3.44.06l17.11,0a13,13,0,0,0,4.76-.78,12.22,12.22,0,0,0,7.09-7,12.29,12.29,0,0,0,.74-5.29,12.12,12.12,0,0,0-5-9,12.9,12.9,0,0,0-4.64-1.95,20.7,20.7,0,0,0-4.84-.57,21,21,0,0,0-8.78,1.88c-1.29.57-2.47,1.3-3.64,1.93L255,194.46l-5.75,3.19a8.43,8.43,0,0,0-3.43,3.38,8.91,8.91,0,0,0-1,2.93c-.1.71-.09,1.08-.12,1.08a5.28,5.28,0,0,1,0-1.09,8.16,8.16,0,0,1,.92-3,8.66,8.66,0,0,1,3.47-3.55l5.71-3.25,3.32-1.89c1.17-.64,2.34-1.38,3.66-2a21.49,21.49,0,0,1,9-2,21.16,21.16,0,0,1,5,.57,13.48,13.48,0,0,1,4.81,2,12.66,12.66,0,0,1,5.27,9.33,12.87,12.87,0,0,1-.78,5.52,12.66,12.66,0,0,1-7.39,7.3,13.3,13.3,0,0,1-4.94.8l-17.11-.06a33.17,33.17,0,0,1-3.49-.1,8.72,8.72,0,0,1-3-1,9,9,0,0,1-3.48-3.55,8.36,8.36,0,0,1-.91-3A6.54,6.54,0,0,1,244.73,205Z"/><path class="cls-9" d="M620.85,335.33s0-.24,0-.7.07-1.15.13-2,.16-2,.22-3.3.1-2.81.16-4.51,0-3.58,0-5.65-.14-4.31-.42-6.7a87.59,87.59,0,0,0-2.9-16.09,71.38,71.38,0,0,0-3.18-9,59.62,59.62,0,0,0-4.83-9.09A62.05,62.05,0,0,0,594.4,262,74,74,0,0,0,572,250.94c-8.34-2.56-17.42-3.49-26.66-3.55a87.26,87.26,0,0,0-26.6,3.87,74.33,74.33,0,0,0-11.84,4.89,67.87,67.87,0,0,0-10.28,6.71,86.15,86.15,0,0,0-15.84,16.24,64.64,64.64,0,0,0-5.26,8.84,86.83,86.83,0,0,0-3.64,8.79,104.56,104.56,0,0,0-5.77,28.06c-.16,3.39-.15,6-.06,7.81.05.88.09,1.56.12,2s0,.7,0,.7,0-.24-.08-.69-.09-1.15-.17-2c-.11-1.79-.17-4.43,0-7.83a103.42,103.42,0,0,1,5.63-28.17,87.4,87.4,0,0,1,3.63-8.84,63.89,63.89,0,0,1,5.27-8.92,86.12,86.12,0,0,1,15.89-16.37,69.19,69.19,0,0,1,10.35-6.78,75.52,75.52,0,0,1,11.92-4.93,87.63,87.63,0,0,1,26.75-3.9c9.28.06,18.41,1,26.81,3.58a74.13,74.13,0,0,1,22.56,11.16,67.83,67.83,0,0,1,8.84,7.75,54,54,0,0,1,6.87,8.72,59.91,59.91,0,0,1,4.84,9.16,73.68,73.68,0,0,1,3.17,9,87.12,87.12,0,0,1,2.83,16.16c.26,2.41.26,4.66.38,6.73s0,4,0,5.66-.14,3.2-.2,4.51-.2,2.41-.27,3.3-.15,1.55-.19,2S620.85,335.33,620.85,335.33Z"/><path class="cls-9" d="M377.52,210.05l-.24,0-.67,0-2.61,0-9.59.18c-8.1.15-19.29.45-31.64.78s-23.56.58-31.66.64c-4.05,0-7.33,0-9.59,0l-2.61,0-.68,0a.72.72,0,0,1-.23,0,.6.6,0,0,1,.23,0l.68,0,2.6-.06,9.6-.17c8.09-.15,19.28-.45,31.64-.79S356.3,210,364.4,210c4.05,0,7.33,0,9.6,0l2.61,0,.67,0A.64.64,0,0,1,377.52,210.05Z"/><path class="cls-9" d="M364.26,225.09a75.06,75.06,0,0,1-8.76.26,75.17,75.17,0,0,1-8.77-.26,75.17,75.17,0,0,1,8.77-.26A75.06,75.06,0,0,1,364.26,225.09Z"/><path class="cls-9" d="M367.47,171.57c.06.14-10.82,4.67-24.29,10.12s-24.43,9.76-24.49,9.63,10.82-4.66,24.3-10.12S367.42,171.44,367.47,171.57Z"/><path class="cls-9" d="M345.43,175c.06.13-10.3,4.69-23.12,10.19S299,195,299,194.89s10.3-4.7,23.13-10.19S345.38,174.86,345.43,175Z"/><path class="cls-9" d="M485.19,169.68c.06.14-10.82,4.66-24.29,10.12s-24.43,9.76-24.48,9.63,10.82-4.66,24.29-10.12S485.14,169.55,485.19,169.68Z"/><path class="cls-9" d="M463.16,173.1c0,.13-10.3,4.69-23.13,10.19s-23.28,9.84-23.34,9.71,10.3-4.7,23.13-10.19S463.1,173,463.16,173.1Z"/><path class="cls-9" d="M487.32,210c0,.15-21.63.39-48.31.55s-48.31.17-48.31,0,21.63-.39,48.31-.55S487.32,209.9,487.32,210Z"/><path class="cls-9" d="M511.27,224.25c0,.15-6.06.32-13.54.39s-13.56,0-13.56-.13,6.07-.32,13.55-.39S511.27,224.11,511.27,224.25Z"/><path class="cls-9" d="M97.12,216.86a2.2,2.2,0,0,1-.59.11l-1.69.22c-.74.09-1.64.2-2.68.37s-2.23.32-3.53.58c-2.61.45-5.69,1.14-9.08,2s-7,2.11-10.81,3.57a113.92,113.92,0,0,0-10.36,4.74c-3.1,1.64-5.83,3.23-8.05,4.67-1.13.69-2.11,1.39-3,2s-1.62,1.11-2.21,1.55l-1.4,1a2.06,2.06,0,0,1-.51.31,3.48,3.48,0,0,1,.45-.4L45,236.53c.58-.47,1.3-1,2.17-1.63s1.83-1.33,3-2.05c2.21-1.48,4.92-3.12,8-4.79a98.55,98.55,0,0,1,21.28-8.34c3.41-.88,6.51-1.53,9.14-1.94,1.31-.24,2.51-.37,3.55-.51s2-.22,2.7-.28l1.71-.12A2,2,0,0,1,97.12,216.86Z"/><path class="cls-9" d="M275.7,193.27s-.3-.4-1-.93a6.57,6.57,0,0,0-3.3-1.34,14.43,14.43,0,0,0-5.33.58,40.1,40.1,0,0,0-6.3,2.14,41.05,41.05,0,0,0-10.24,6.37c-2.38,2-3.63,3.47-3.71,3.4a6.7,6.7,0,0,1,.85-1.07,31.92,31.92,0,0,1,2.62-2.61,38.12,38.12,0,0,1,10.27-6.57,39.22,39.22,0,0,1,6.39-2.13,14.17,14.17,0,0,1,5.5-.47,6.5,6.5,0,0,1,3.38,1.54,4.32,4.32,0,0,1,.67.77A1,1,0,0,1,275.7,193.27Z"/><path class="cls-5" d="M597.65,166.86a16.26,16.26,0,0,1-4.26.43,25.38,25.38,0,0,1-5-.62,43.7,43.7,0,0,1-6.36-2c-2.31-.87-4.78-2-7.44-3.11l-4.15-1.68c-1.43-.57-2.93-1.06-4.46-1.61a171.76,171.76,0,0,0-20.38-5.56A234.33,234.33,0,0,0,507.52,148c-2.45-.13-4.68-.13-6.63-.19h-5l-3.17.07h-.83l-.28,0,.28,0,.82-.05,3.17-.17,5-.09c1.95,0,4.18,0,6.65.11a222.7,222.7,0,0,1,38.18,4.6,171.06,171.06,0,0,1,20.43,5.61c1.53.57,3,1.07,4.47,1.65l4.16,1.7c2.65,1.16,5.1,2.28,7.39,3.17a47,47,0,0,0,6.29,2,27.34,27.34,0,0,0,4.94.7,20.94,20.94,0,0,0,3.15-.12l.82-.1A.86.86,0,0,1,597.65,166.86Z"/></g><g id="Character"><path class="cls-7" d="M116.52,168.23c-4-21.88-6.68-25.24-8.94-32.77S101.73,123,97.25,121.32c-3-1.16-18.06-6.59-23.31-4.79a65,65,0,0,0-14.52,7.3,19.41,19.41,0,0,0-7.59,9.69l-8,22.57,14.08,14,7.06-15,7.66,18-1.13,18.15,43.94,11.82C119.39,196.67,118.79,180.65,116.52,168.23Z"/><g class="cls-11"><path d="M105.08,144.37c-1.94,11.39-2.25,13-4.19,24.35-.67,3.91-2.61,10-5.4,12.83-2.06,2.09-4.08,4.11-6.94,4.79-2.67.63-6.71.7-9.22-.41s-4.64-6-3.61-8.5c3.73.79,4.88,2,8.09,0a28.06,28.06,0,0,0,8.31-8.67c6.41-12.41,8.17-12.85,13-24.39"/></g><path class="cls-5" d="M73.29,166.43a25.19,25.19,0,0,1-1.94-3c-1.24-2-2.8-4.56-4.53-7.38l-4.64-7.32a24.46,24.46,0,0,1-1.86-3.07,3.28,3.28,0,0,1,.62.74c.38.49.91,1.22,1.55,2.13,1.27,1.81,3,4.36,4.77,7.24s3.33,5.53,4.4,7.47c.54,1,1,1.77,1.24,2.32A3.83,3.83,0,0,1,73.29,166.43Z"/><path class="cls-5" d="M103.94,186.86a4.34,4.34,0,0,1-1,.39,10.57,10.57,0,0,1-1.25.35c-.49.11-1,.26-1.67.35a28,28,0,0,1-4.45.4,28.65,28.65,0,0,1-10.72-1.95,27.52,27.52,0,0,1-4-2c-.55-.3-1-.64-1.44-.92a10.16,10.16,0,0,1-1-.76,4.63,4.63,0,0,1-.83-.73c.06-.08,1.29.89,3.5,2.09A30.73,30.73,0,0,0,85,186a33.64,33.64,0,0,0,5.19,1.42,32.41,32.41,0,0,0,5.36.5,31.25,31.25,0,0,0,4.39-.28C102.42,187.24,103.91,186.77,103.94,186.86Z"/><path class="cls-12" d="M86.31,152.77c-.07.4-4.8,9.8-4.8,9.8L59.23,150.83,57,141.23a6,6,0,0,0-7.21-4.43l-6.57,2.69a1.75,1.75,0,0,0-1.09,1.27c-.09.49,0,1,.87.89,1.63-.12,5-.49,5-.49l-1.55,5.47a5.86,5.86,0,0,0,.44,4.29l1,1.9L50,156.33l0,0s21.65,22.24,33.81,23.69c7.31.87,15.59-19.62,15.59-19.62Z"/><path class="cls-13" d="M47.81,141.53s.16-.23.54-.48a3,3,0,0,1,1.68-.52,1.81,1.81,0,0,1,1.5,1c.2.45.06.76,0,.74s0-.29-.24-.63a1.7,1.7,0,0,0-1.3-.74,3.32,3.32,0,0,0-1.56.39C48.07,141.44,47.83,141.57,47.81,141.53Z"/><path class="cls-13" d="M50.61,144.94s-.14-.18-.36-.44a2.53,2.53,0,0,0-1-.77,2.63,2.63,0,0,0-1.28-.15c-.34,0-.54.13-.56.09s.15-.2.51-.31a2.29,2.29,0,0,1,1.45.06,2.2,2.2,0,0,1,1.1,1C50.63,144.7,50.65,144.93,50.61,144.94Z"/><path class="cls-7" d="M90.93,123.1l-6,28.59,16,9.61L107,143.73S104.49,122.4,90.93,123.1Z"/><path class="cls-1" d="M99.55,123.61a1.89,1.89,0,0,1-.4.25l-1.22.64c-1.06.55-2.61,1.3-4.56,2.17a67.17,67.17,0,0,1-15.9,5,39.64,39.64,0,0,1-16.62-.56,28.37,28.37,0,0,1-4.77-1.71c-.55-.24-.95-.48-1.23-.62s-.41-.24-.4-.26a17.32,17.32,0,0,1,1.71.69,32.22,32.22,0,0,0,4.78,1.54,41.22,41.22,0,0,0,16.44.41,72.62,72.62,0,0,0,15.84-4.84c2-.82,3.54-1.52,4.62-2A11.6,11.6,0,0,1,99.55,123.61Z"/><path class="cls-1" d="M103.76,126.76s-.14.13-.44.33-.79.51-1.33.85a24.35,24.35,0,0,1-2.16,1.25c-.86.46-1.82,1-2.94,1.5l-1.75.81c-.61.27-1.27.5-1.94.77-1.33.56-2.8,1-4.35,1.51a65.69,65.69,0,0,1-10.31,2.15,65.64,65.64,0,0,1-10.54.32c-1.62-.13-3.16-.22-4.58-.46-.71-.1-1.41-.17-2.07-.3l-1.88-.37c-1.21-.21-2.27-.53-3.22-.77a24.67,24.67,0,0,1-2.39-.72l-1.49-.51a2.1,2.1,0,0,1-.5-.22,3.57,3.57,0,0,1,.54.12l1.51.42c.66.2,1.46.42,2.41.63s2,.5,3.21.69l1.88.34c.65.11,1.34.17,2,.27,1.42.21,3,.28,4.55.4a68.5,68.5,0,0,0,10.46-.36,67.78,67.78,0,0,0,10.24-2.09c1.53-.49,3-.92,4.33-1.45.67-.26,1.32-.48,1.93-.74l1.75-.77c1.13-.46,2.1-1,3-1.42s1.6-.83,2.19-1.18l1.37-.76A2.8,2.8,0,0,1,103.76,126.76Z"/><path class="cls-5" d="M100.89,161.3a8.21,8.21,0,0,1-1.3-.66l-3.52-2-12-6.93-.15-.09,0-.17c.43-2.14.89-4.43,1.37-6.8.73-3.55,1.42-6.94,2-10,.33-1.54.6-3,.9-4.38a15.64,15.64,0,0,1,1.29-3.72,7.44,7.44,0,0,1,4.13-3.78,5,5,0,0,1,1.53-.26,2,2,0,0,1,.54.06,6.6,6.6,0,0,0-5.88,4.15,16.2,16.2,0,0,0-1.19,3.64c-.26,1.38-.55,2.84-.85,4.38-.62,3.09-1.3,6.48-2,10-.48,2.36-1,4.65-1.38,6.79l-.12-.27c4.76,2.84,8.91,5.3,11.93,7.09l3.45,2.11A8.9,8.9,0,0,1,100.89,161.3Z"/><path class="cls-5" d="M105.79,142.89a11.58,11.58,0,0,1-.08,2.66A41.31,41.31,0,0,1,102.44,158a11.25,11.25,0,0,1-1.24,2.36,17.43,17.43,0,0,1,.9-2.5,58.27,58.27,0,0,0,3.24-12.32A17.14,17.14,0,0,1,105.79,142.89Z"/><path class="cls-10" d="M19,301.91l-.18,15.27S3.28,322.12,3,324.94l29.59,1.41,1.25-23.78Z"/><path class="cls-2" d="M28.06,316.33a1.21,1.21,0,0,1,.77,1.42,1.16,1.16,0,0,1-1.4.77,1.26,1.26,0,0,1-.8-1.5,1.21,1.21,0,0,1,1.54-.65"/><path class="cls-2" d="M32.56,326.35l0-2.4L4.21,323.5S2.86,324,3,324.94Z"/><path class="cls-5" d="M18.38,317c0,.15.72.25,1.41.75s1,1.12,1.17,1.07,0-.9-.88-1.49S18.36,316.87,18.38,317Z"/><path class="cls-5" d="M15.22,318.14c0,.14.57.41,1,1.05s.58,1.29.72,1.29.27-.82-.31-1.59S15.23,318,15.22,318.14Z"/><path class="cls-5" d="M13.28,321.77c.13,0,.36-.68,0-1.48s-1-1.16-1.06-1,.33.56.59,1.23S13.13,321.75,13.28,321.77Z"/><path class="cls-5" d="M18.81,313.53c.05.13.72,0,1.54.06s1.44.38,1.52.26-.51-.66-1.47-.76S18.74,313.41,18.81,313.53Z"/><g class="cls-14"><polygon points="19 304.93 18.96 307.65 33.51 308.21 33.65 305.77 19 304.93"/></g><path class="cls-5" d="M18.9,310.45a2.71,2.71,0,0,0,1.48.06,6.53,6.53,0,0,0,1.58-.4,7.53,7.53,0,0,0,.87-.41,1.74,1.74,0,0,0,.46-.33.61.61,0,0,0,.1-.76.76.76,0,0,0-.61-.36,1.62,1.62,0,0,0-.56.05,4.47,4.47,0,0,0-.94.27,5.2,5.2,0,0,0-1.41.83c-.71.6-1,1.13-.93,1.16s.42-.38,1.15-.88a6.06,6.06,0,0,1,1.35-.68,5.53,5.53,0,0,1,.87-.22c.31-.07.58-.06.65.09s0,.07,0,.16a1.42,1.42,0,0,1-.34.24,8.68,8.68,0,0,1-.8.41,8.51,8.51,0,0,1-1.46.48A10.28,10.28,0,0,0,18.9,310.45Z"/><path class="cls-5" d="M19.08,310.67a2.41,2.41,0,0,0,.46-1.42,5,5,0,0,0-.13-1.63,4.44,4.44,0,0,0-.33-.92,1.24,1.24,0,0,0-.91-.79.7.7,0,0,0-.64.38,1.9,1.9,0,0,0-.18.54,3.4,3.4,0,0,0-.05,1,3.55,3.55,0,0,0,.56,1.56c.54.79,1.14,1,1.15.95s-.43-.38-.84-1.13a3.49,3.49,0,0,1-.4-1.42,3,3,0,0,1,.06-.85c.06-.32.19-.56.31-.53s.39.26.5.51a5,5,0,0,1,.32.82,5.39,5.39,0,0,1,.22,1.5C19.18,310.11,19,310.64,19.08,310.67Z"/><path class="cls-5" d="M79.33,191.4S33.12,172,18.81,171.19c-9-.52-15.76,5.25-14.54,14.53.61,4.64,13.38,59,13.38,59l19.48-8.89-9.35-37.59,38,18.45Z"/><path class="cls-10" d="M21.94,188.73c-.15.13,1.39,2.11,3,4.72s2.7,4.86,2.88,4.78-.65-2.48-2.3-5.14S22.07,188.61,21.94,188.73Z"/><path class="cls-10" d="M18.16,190.89c-.1.17,2.24,1.65,5,3.67s4.85,3.79,5,3.65-1.8-2.16-4.58-4.2S18.24,190.74,18.16,190.89Z"/><path class="cls-5" d="M115.39,203.06s-5.82,7.49-11.36,9.54c-7,2.57-58.46,26.87-58.46,26.87S36.23,308.85,37,306l-21.55-.52,2.35-63.91c.28-8.19,6.83-17.58,13.88-21.76L79.33,191.4Z"/><path class="cls-10" d="M17.36,253.22a4.6,4.6,0,0,0,.08-.87c0-.65.08-1.48.14-2.51a83.2,83.2,0,0,1,.85-9.19A31.65,31.65,0,0,1,23.08,228a24,24,0,0,1,5.54-5.72,65.22,65.22,0,0,1,7.32-4.63c10.37-5.94,19.32-12,25.93-16.15,3.3-2.1,6-3.78,7.85-4.92l2.14-1.32a4.39,4.39,0,0,0,.72-.49,4.65,4.65,0,0,0-.79.37c-.51.27-1.26.67-2.21,1.22-1.91,1.07-4.63,2.68-8,4.73-6.69,4.05-15.68,10.05-26,16a64.36,64.36,0,0,0-7.38,4.69,24.47,24.47,0,0,0-5.66,5.9A31.75,31.75,0,0,0,18,240.57a72,72,0,0,0-.64,9.26v2.52A3.67,3.67,0,0,0,17.36,253.22Z"/><path class="cls-10" d="M96.37,210.38a19.53,19.53,0,0,0-1.32-1.78,12.85,12.85,0,0,1-2-10,20.11,20.11,0,0,0,.53-2.15,4.54,4.54,0,0,0-1,2,11.49,11.49,0,0,0,2.1,10.39A4.79,4.79,0,0,0,96.37,210.38Z"/><path class="cls-10" d="M23.34,305.44a2.08,2.08,0,0,0,.07-.36c0-.27.07-.62.12-1,.11-1,.25-2.33.44-4,.35-3.57.84-8.63,1.46-14.87.3-3.15.62-6.59,1-10.28s.73-7.64,1-11.79.72-8.51,1.47-13a53.54,53.54,0,0,1,4-13.34,44.41,44.41,0,0,1,7.83-11.47,69.8,69.8,0,0,1,9.75-8.6A198.69,198.69,0,0,1,69.19,205c5.47-3.14,9.83-5.82,12.73-7.84,1.45-1,2.56-1.81,3.29-2.38.34-.27.62-.48.83-.66s.28-.23.27-.24L86,194l-.87.6c-.76.53-1.88,1.31-3.36,2.27-2.94,2-7.32,4.56-12.82,7.64a191.66,191.66,0,0,0-18.89,11.62,70.86,70.86,0,0,0-9.87,8.65,45.43,45.43,0,0,0-8,11.64,53.73,53.73,0,0,0-4,13.52c-.76,4.49-1.14,8.87-1.44,13s-.62,8.11-1,11.8-.62,7.13-.89,10.28C24.43,291.33,24,296.4,23.7,300c-.13,1.72-.23,3.08-.3,4,0,.43,0,.78-.06,1.06A1.63,1.63,0,0,0,23.34,305.44Z"/><path class="cls-5" d="M74.09,81.34a8.43,8.43,0,0,0-9.64-5.18,10.45,10.45,0,0,1-2.68.58,20.1,20.1,0,0,1-3.26-.86A4.89,4.89,0,0,0,53,79.45a6.65,6.65,0,0,0-5.49,1.09,4.33,4.33,0,0,0-1.29,5.18c.4.73,1,1.31,1.39,2.06.59,1.23.32,2.71.73,4A5.42,5.42,0,0,0,53,95.14a15.88,15.88,0,0,0,6-.86"/><path class="cls-12" d="M64.81,120.89c-.26-1.93-.42-3.29-.42-3.29s-6.44,0-9-8c-1.29-4-2.15-10.68-2.67-16.19a8.76,8.76,0,0,1,8.26-9.58l17.12-.9.36,2.66,4.51,32.91a9.13,9.13,0,0,1-7.86,10.3h0A9.13,9.13,0,0,1,64.81,120.89Z"/><path class="cls-5" d="M55.09,98.1a1.07,1.07,0,0,0,1.18.9,1,1,0,0,0,.94-1.12A1.07,1.07,0,0,0,56,97,1,1,0,0,0,55.09,98.1Z"/><path class="cls-5" d="M54.67,96.62c.15.12.85-.6,2-.77s2.05.25,2.15.09-.12-.29-.52-.5a3,3,0,0,0-1.75-.25A2.84,2.84,0,0,0,55,96C54.67,96.3,54.6,96.57,54.67,96.62Z"/><path class="cls-5" d="M65.84,96.28a1.05,1.05,0,0,0,1.18.9A1,1,0,0,0,68,96.06a1.07,1.07,0,0,0-1.18-.9A1,1,0,0,0,65.84,96.28Z"/><path class="cls-5" d="M65.81,95.07c.15.11.86-.6,2-.78s2,.26,2.15.1-.12-.3-.53-.5a2.85,2.85,0,0,0-1.75-.25,2.77,2.77,0,0,0-1.55.79C65.82,94.75,65.74,95,65.81,95.07Z"/><path class="cls-5" d="M63,104.1a8.19,8.19,0,0,0-1.89,0c-.29,0-.57,0-.65-.19a1.46,1.46,0,0,1,.06-.88c.16-.74.32-1.52.5-2.34a36.71,36.71,0,0,0,1-6.05,39.22,39.22,0,0,0-1.49,6c-.16.82-.31,1.6-.46,2.34a1.66,1.66,0,0,0,0,1.16.73.73,0,0,0,.54.34,1.64,1.64,0,0,0,.5,0A7.13,7.13,0,0,0,63,104.1Z"/><path class="cls-13" d="M64.39,117.6a21.09,21.09,0,0,0,10.5-4.67s-1.77,6-10.08,6.58Z"/><path class="cls-5" d="M66.49,104.35c-.18,0,0,1.25-.9,2.29s-2.24,1.11-2.22,1.28.33.19.88.12a3.16,3.16,0,0,0,1.87-1,2.76,2.76,0,0,0,.68-1.9C66.76,104.61,66.58,104.33,66.49,104.35Z"/><path class="cls-5" d="M64.82,90.68c.16.29,1.26,0,2.61-.08s2.48.14,2.62-.17c0-.14-.18-.4-.66-.63a4.28,4.28,0,0,0-2-.36,4.39,4.39,0,0,0-2,.55C65,90.27,64.74,90.55,64.82,90.68Z"/><path class="cls-5" d="M54.56,93.28c.24.23,1-.16,1.91-.32s1.76-.1,1.9-.4c.06-.14-.11-.38-.49-.57a2.82,2.82,0,0,0-3.07.59C54.52,92.89,54.46,93.17,54.56,93.28Z"/><path class="cls-5" d="M51.82,89.79s4.53,1.52,9.73-2c3.42-2.28,7.55-3.71,8.58-3.1s1.71,4.35,5.46,5c0,0,.66,7.2,3.48,6.58,2-.44.84-8.38,0-12.91a3.94,3.94,0,0,0-3.73-3.22L70.05,80l-6.58,1.83-7.06,1.93L51,86Z"/><path class="cls-12" d="M78.44,93.4c.11-.08,4.48-2.38,5.28,2.39s-4.14,4.6-4.17,4.46S78.44,93.4,78.44,93.4Z"/><path class="cls-13" d="M80.7,98.2s.09,0,.24.08a.8.8,0,0,0,.62-.09,2,2,0,0,0,.64-2A2.73,2.73,0,0,0,81.77,95,1,1,0,0,0,81,94.5a.44.44,0,0,0-.46.32c0,.14,0,.23,0,.24s-.12-.06-.12-.26a.62.62,0,0,1,.14-.33.61.61,0,0,1,.44-.2,1.16,1.16,0,0,1,1,.59,2.78,2.78,0,0,1,.52,1.28,2.17,2.17,0,0,1-.87,2.26.91.91,0,0,1-.78,0C80.73,98.31,80.68,98.21,80.7,98.2Z"/><path class="cls-10" d="M54.11,77.7s.17.25.5.64a4.25,4.25,0,0,0,1.81,1.16,6,6,0,0,0,3.17.14,27.35,27.35,0,0,0,3.85-1.23,10.58,10.58,0,0,1,4.09-.73,4.47,4.47,0,0,1,3.1,1.4,3.26,3.26,0,0,1,1,2.09,1.4,1.4,0,0,1-.14.83s0-.3-.06-.81a3.27,3.27,0,0,0-1-1.85,4.26,4.26,0,0,0-2.87-1.18,10.46,10.46,0,0,0-3.89.75,26.11,26.11,0,0,1-3.93,1.2,6.07,6.07,0,0,1-3.39-.27,3.87,3.87,0,0,1-1.83-1.38A1.58,1.58,0,0,1,54.11,77.7Z"/><path class="cls-10" d="M70.22,82.27s-.24-.26-.74-.6a4.38,4.38,0,0,0-2.4-.71,7.77,7.77,0,0,0-3.64.89,37.72,37.72,0,0,1-4.34,2,10.82,10.82,0,0,1-8.54-.94,9.39,9.39,0,0,1-2.11-1.61,3,3,0,0,1-.6-.76,18.93,18.93,0,0,0,2.88,2.05,10.9,10.9,0,0,0,8.21.76,44.05,44.05,0,0,0,4.3-2,7.81,7.81,0,0,1,3.86-.82,4.35,4.35,0,0,1,2.51.92A1.79,1.79,0,0,1,70.22,82.27Z"/><path class="cls-12" d="M55.41,163.53l-23.22-19.8-7.66,1.74s8.07,16.77,13.91,22.92c0,0,5.77,7.73,15.29,4.39S55.41,163.53,55.41,163.53Z"/><path class="cls-10" d="M30.44,121.94H20.57a2.5,2.5,0,0,0-2.29,3.14l9.92,19.34a2.26,2.26,0,0,0,2,1.22l12,0a1.72,1.72,0,0,0,1.32-2.54L34,124.14A3.93,3.93,0,0,0,30.44,121.94Z"/><path class="cls-5" d="M29.77,123.1H19.9a1.65,1.65,0,0,0-1.47,2.41l9.69,18.91a2.23,2.23,0,0,0,2,1.22H42a1,1,0,0,0,.87-1.41L33.3,125.3A3.94,3.94,0,0,0,29.77,123.1Z"/><path class="cls-12" d="M28.93,131l-6,2.4-1.29,4.84,2.89,7.21L35.15,147,32,143.83l.4-2.76s3-.93,3-1.39-.37-2-.82-2a23.22,23.22,0,0,0-3.56,1.08s3.68-2.91,3.57-3.38-.49-1.66-1.23-1.79-6.66,2.66-6.66,2.66l-1,2.2L25,134.9S30.24,133.42,28.93,131Z"/><path class="cls-13" d="M29.69,142.37s-.15-.21-.2-.6a3.18,3.18,0,0,1,.18-1.52,3.12,3.12,0,0,1,.85-1.26c.29-.26.52-.36.54-.33a7.13,7.13,0,0,0-1.1,1.7A6.51,6.51,0,0,0,29.69,142.37Z"/><path class="cls-13" d="M26.83,141.32a11.91,11.91,0,0,0,.24-1.57,7.46,7.46,0,0,1,.3-1.75,2.66,2.66,0,0,1,.56-.93,2.62,2.62,0,0,1,1-.61c1.44-.53,2.73-1,3.68-1.25a8.39,8.39,0,0,1,1.55-.43,8.67,8.67,0,0,1-1.48.63c-.92.36-2.23.82-3.64,1.33a2.52,2.52,0,0,0-.87.54,2.45,2.45,0,0,0-.51.82,7.68,7.68,0,0,0-.35,1.67A3.21,3.21,0,0,1,26.83,141.32Z"/><path class="cls-13" d="M25.46,140.23c-.09,0-.07-.54,0-1.18s.26-1.15.35-1.13a2.35,2.35,0,0,1,0,1.18C25.69,139.74,25.54,140.25,25.46,140.23Z"/><path class="cls-6" d="M25.29,126.75a1.26,1.26,0,1,0,1.26-1.26A1.26,1.26,0,0,0,25.29,126.75Z"/></g></g></svg>